# xmcd CD database file
#
# Track frame offsets:
#	150
#	32383
#	53003
#	84030
#	116403
#	138647
#	156739
#	177727
#	210004
#
# Disc length: 3331 seconds
#
# Revision: 0
# Processed by: cddbd v1.5.2PL0 Copyright (c) Steve Scherf et al.
# Submitted via: CDex 1.51
#
DISCID=6e0d0109
DTITLE=Remi Bolduc - Random Masters
DYEAR=2013
DGENRE=Jazz
TTITLE0=Amorcage Aleatoire
TTITLE1=ADN Circulaire
TTITLE2=Jumeaux Monozygotes
TTITLE3=Trini Memories
TTITLE4=Ralos
TTITLE5=Polyphonie Atomique
TTITLE6=Tes Douces Levres
TTITLE7=Superhelicoidal
TTITLE8=Raise Four
EXTD=YEAR: 2013
EXTT0=
EXTT1=
EXTT2=
EXTT3=
EXTT4=
EXTT5=
EXTT6=
EXTT7=
EXTT8=
PLAYORDER=
